<svg width="22" height="23" viewBox="0 0 22 23" fill="none" xmlns="http://www.w3.org/2000/svg">
<path d="M16.5 6H16.51M6 1.5H16C18.7614 1.5 21 3.73858 21 6.5V16.5C21 19.2614 18.7614 21.5 16 21.5H6C3.23858 21.5 1 19.2614 1 16.5V6.5C1 3.73858 3.23858 1.5 6 1.5ZM15 10.87C15.1234 11.7022 14.9813 12.5522 14.5938 13.299C14.2063 14.0458 13.5931 14.6514 12.8416 15.0297C12.0901 15.4079 11.2384 15.5396 10.4078 15.4059C9.57713 15.2723 8.80976 14.8801 8.21484 14.2852C7.61992 13.6902 7.22773 12.9229 7.09407 12.0922C6.9604 11.2616 7.09207 10.4099 7.47033 9.65837C7.84859 8.90685 8.45419 8.29374 9.20098 7.90624C9.94778 7.51874 10.7978 7.37659 11.63 7.5C12.4789 7.62588 13.2649 8.02146 13.8717 8.62831C14.4785 9.23515 14.8741 10.0211 15 10.87Z" stroke="#304F4C" stroke-width="2" stroke-linecap="round" stroke-linejoin="round"/>
</svg>
